<svg xmlns="http://www.w3.org/2000/svg" xml:space="preserve" width="2000" height="503" data-id="lg_rhgkwcFScQ3UA2NarH" data-version="1" viewBox="0 0 2000 503"><g data-padding="20"><g transform="translate(10 8.966)scale(.96435)"><path fill="#333b6a" d="M755.732 313.578c17.325 71.995 66.928 135.566 132.562 169.862 20.02 10.456 41.78 18.372 64.326 19.527s46.046-4.99 63.032-19.882c16.709-14.63 26.288-36.636 44.675-49.095 20.45-13.86 47.355-12.967 71.749-9.024 24.393 3.942 49.172 10.41 73.458 5.898 39.655-7.361 68.684-42.596 84.16-79.834 33.557-80.742 16.402-178.794-38.268-247.031S1108.006-2.015 1020.596-.028c-64.82 1.478-128.252 23.962-181.52 60.507-49.435 33.926-74.66 85.254-85.732 144.113a261.8 261.8 0 0 0 2.387 108.955Z"/><rect width="446.25" height="96.05" x="378.547" y="-47.533" fill="none" rx="0" ry="0" transform="translate(276.94 270.39)scale(1.24)"/><path fill="#b7feae" d="M805.074 290.79q2.74-3.68 4.37-7.84t1.79-7.84-.63-7-3-5.37-5.1-2.79q-2.9-.74-7.11.63t-8.95 4.85l-.21 29.79q1.9 1.26 4.84 1.68 2.95.42 7-.95 4.06-1.37 7-5.16m-7.05 15.79q-2.42-.63-6.1-2.63-3.69-2-5.48-3.26v30l-13.16-2.95q-.31-70 0-71.47 6.64-1.9 10.58-2.69 3.95-.79 9-1.05 5.06-.26 9.64 1.26 4.57 1.53 9.42 4.69 6.31 4.21 9.26 9.95 2.95 5.73 2.58 11.26t-2.84 10.95q-2.48 5.42-6.27 9.26t-8.26 5.74q-4.47 1.89-8.37.94m70.75-42.31q-6.95-4.74-14.42 1.47-6.21 5.26-8.32 14-2.31 10 3.58 15.05.74.64 1.58 1.16 4.21 2.32 8.69 1.06 4.47-1.27 7.79-5.58 3.31-4.32 5.21-9.21 1.89-4.9.94-10-.94-5.11-5.05-7.95m10.53.84q3.05 2.74 4.73 6.58 1.69 3.84 1.95 7.84.27 4-.73 8.11-1 4.1-3 7.68t-5.01 6.37q-3 2.79-6.57 4.21-3.58 1.42-7.95 1.11-4.37-.32-8.9-2.74-5.89-3.16-11.58-8-4.52-3.9-6.73-8.79-2.21-4.9-2.06-9.53.16-4.63 1.79-9.26 1.64-4.63 4.74-8 3.11-3.37 6.79-5.74t7.95-2.47q4.26-.11 8.26 1.79 10.21 5.37 16.32 10.84m18.2-11.47 13.16 2.94v7.79q7.68-12.1 13.05-12.1 2.63 0 8.84 2.68 6.21 2.69 10.42 5.53l-7.26 10.52q-6.53-4.84-11.32-5.31-4.79-.48-7.63 1.89t-6.1 7.64v31.79l-13.16-2.95Zm54.84 7.36h-5.47l-3.16-7.36h8.63v-11.37l12.95 2.94v8.43h12.84l3.16 7.36h-16v16.85q0 2.84-.05 5.68t.31 5.37q.37 2.53.9 4.63.53 2.11 1.79 3.37t3.05 1.68q1.79.43 4.58-.57t6.37-3.32l2.84 3.26q-6.1 5.58-10.21 7.79-3.16 1.79-8.68-.58-5.53-2.36-9.69-6.63-4.16-4.26-4.16-7.42Zm49.48-13.79q-5.37-2.52-8-7.68.21-1.68 3.16-4.32 2.94-2.63 4.73-3.05 5.37 2.42 7.9 7.47-1.79 4.53-7.79 7.58m-6.84 6.43 13.15 2.94v50.43l-13.15-2.95Zm61.37 10.63q-6.95-4.74-14.42 1.47-6.22 5.26-8.32 14-2.32 10 3.58 15.05.73.64 1.58 1.16 4.21 2.32 8.68 1.06 4.48-1.27 7.79-5.58 3.32-4.32 5.21-9.21 1.9-4.9.95-10-.95-5.11-5.05-7.95m10.52.84q3.06 2.74 4.74 6.58t1.95 7.84q.26 4-.74 8.11-1 4.1-3 7.68t-5 6.37-6.58 4.21-7.95 1.11q-4.36-.32-8.89-2.74-5.9-3.16-11.58-8-4.53-3.9-6.74-8.79-2.21-4.9-2.05-9.53t1.79-9.26 4.74-8q3.1-3.37 6.79-5.74 3.68-2.37 7.94-2.47 4.27-.11 8.27 1.79 10.21 5.37 16.31 10.84m18.11-11.47 13.68 2.94v4.32q9.37-8.74 16.43-8.32 3.36.21 11.84 8.37 8.47 8.16 9 11.11.42 2.73.42 34.95l-13.05-2.95q.63-36.11-.53-38.21-1.89-3.58-6.26-2.16t-9.06 5.1q-4.68 3.69-8.79 8.64v29.58l-13.68-2.95Zm71.16 52.64q-5.37-2.53-8-7.69.21-1.68 3.16-4.31 2.94-2.63 4.73-3.05 5.37 2.42 7.9 7.47-1.79 4.53-7.79 7.58m24.63-59.07q-5.37-2.52-8-7.68.21-1.68 3.16-4.32 2.95-2.63 4.74-3.05 5.37 2.42 7.89 7.47-1.79 4.53-7.79 7.58m-6.84 6.43 13.16 2.94v50.43l-13.16-2.95Zm65.06 3.48-1.15 5.68q-10.21-2.31-13.48-1.89-5.16.63-8.1 5-2.95 4.37-2.11 8.37.21.95 4.84-.21 4.64-1.16 10.11-2.37t7.05-.37q7.27 3.79 9.79 10 2.53 6.21.58 11.84t-7.95 9.74-14.42 4.11q-6.95 0-12.89-3.85-5.95-3.84-13.95-11.52l1.89-3.58q7.16 5.37 15.16 7.21t14.9-1.42q6.89-3.27 9.21-12 .1-.42-.95-.32-1.16.11-5.79 1.37-14.63 3.89-18.63 2.32l-.95-.53q-5.79-4.42-9.37-9.69-2.63-3.57-2.15-7.57.47-4 2.68-7.32t6.63-5.47q4.42-2.16 9.69-2.16 1.57 0 4.47.63 2.89.63 8.21 2.16 5.32 1.52 6.68 1.84m20.63 3.88h-5.48l-3.15-7.36h8.63v-11.37l12.95 2.94v8.43h12.84l3.16 7.36h-16v16.85q0 2.84-.06 5.68-.05 2.84.32 5.37t.89 4.63q.53 2.11 1.79 3.37 1.27 1.26 3.06 1.68 1.78.43 4.57-.57t6.37-3.32l2.85 3.26q-6.11 5.58-10.22 7.79-3.15 1.79-8.68-.58-5.53-2.36-9.68-6.63-4.16-4.26-4.16-7.42Zm-247.106-152.21-5.854 9.388v79.672c0 4.205-1.636 5.84-5.84 5.84h-53.991c-4.205 0-5.84-1.635-5.84-5.84v-79.672l-5.884-9.388h-6.862l6.89 11.052v78.008c0 7.417 4.264 11.68 11.68 11.68h54.007c7.416 0 11.68-4.263 11.68-11.68v-78.008l6.89-11.052Z"/><path fill="#b7feae" d="M985.494 95.65a9.49 9.49 0 1 0 0 18.98 9.49 9.49 0 1 0 0-18.98m2.92-11.68a3.65 3.65 0 1 0 0 7.3 3.65 3.65 0 1 0 0-7.3m-20.44 16.06a3.65 3.65 0 1 0 0 7.3 3.65 3.65 0 1 0 0-7.3m-4.38-36.5a3.65 3.65 0 1 0 0 7.3 3.65 3.65 0 1 0 0-7.3m-2.19 20.44a5.84 5.84 0 1 0 0 11.68 5.84 5.84 0 1 0 0-11.68m13.14-5.84a4.38 4.38 0 1 0 0 8.76 4.38 4.38 0 1 0 0-8.76m-21.17 21.9a6.57 6.57 0 1 0 0 13.14 6.57 6.57 0 1 0 0-13.14m-6.57 21.9h54.02v75.92h-54.02Z"/></g><path fill="transparent" stroke="transparent" d="M719.5 0h561v503h-561z"/></g></svg>